<?xml version="1.0" encoding="UTF-8"?>
<svg xmlns="http://www.w3.org/2000/svg" xmlns:xlink="http://www.w3.org/1999/xlink" width="20px" height="20px"
    viewBox="0 0 20 20" version="1.1">
    <g id="surface1">
        <path style=" stroke:none;fill-rule:nonzero;fill:rgb(0%,0%,0%,.7);fill-opacity:1;"
            d="M 19.378906 17.019531 L 14.644531 12.992188 C 14.152344 12.550781 13.628906 12.347656 13.207031 12.367188 C 14.324219 11.058594 15 9.359375 15 7.5 C 15 3.355469 11.644531 0 7.5 0 C 3.355469 0 0 3.355469 0 7.5 C 0 11.644531 3.355469 15 7.5 15 C 9.359375 15 11.058594 14.324219 12.367188 13.207031 C 12.347656 13.628906 12.550781 14.152344 12.992188 14.644531 L 17.019531 19.378906 C 17.710938 20.148438 18.835938 20.210938 19.523438 19.523438 C 20.210938 18.835938 20.148438 17.710938 19.378906 17.019531 Z M 7.5 12.5 C 4.738281 12.5 2.5 10.261719 2.5 7.5 C 2.5 4.738281 4.738281 2.5 7.5 2.5 C 10.261719 2.5 12.5 4.738281 12.5 7.5 C 12.5 10.261719 10.261719 12.5 7.5 12.5 Z M 7.5 12.5 " />
    </g>
</svg>